<mxfile host="app.diagrams.net" modified="2023-05-19T01:16:33.471Z" agent="Mozilla/5.0 (Macintosh; Intel Mac OS X 10_15_7) AppleWebKit/537.36 (KHTML, like Gecko) Chrome/113.0.0.0 Safari/537.36" version="21.3.0" etag="b3jSU1FbEHn2znQ8sRUj" type="github">
  <diagram name="Page-1" id="Goydip6wp93PW2JIxDSq">
    <mxGraphModel>
      <root>
        <mxCell id="0" />
        <mxCell id="1" parent="0" />
      </root>
    </mxGraphModel>
  </diagram>
</mxfile>
